<svg
  width="16px"
  height="16px"
  viewBox="0 0 16 16"
  version="1.1"
  xmlns="http://www.w3.org/2000/svg"
  xmlns:xlink="http://www.w3.org/1999/xlink"
>
    <g
    id="Page-1"
    stroke="none"
    stroke-width="1"
    fill="none"
    fill-rule="evenodd"
  >
        <g
      id="HOME"
      transform="translate(-369.000000, -2566.000000)"
      fill-rule="nonzero"
    >
            <g id="Group-5" transform="translate(145.000000, 2227.000000)">
                <g id="Group-49" transform="translate(0.000000, 61.000000)">
                    <g
            id="check-(4)"
            transform="translate(224.000000, 278.000000)"
          >
                        <ellipse
              id="Oval"
              fill="#00DF76"
              cx="7.98540351"
              cy="7.98540351"
              rx="7.98281481"
              ry="7.98540351"
            />
                        <path
              d="M7.98540351,0 C7.98178558,0 7.97819883,0 7.9745809,0 L7.9745809,15.9707758 C7.97819883,15.9707758 7.98178558,15.9707758 7.98540351,15.9707758 C12.3941988,15.9707758 15.9682183,12.3956023 15.9682183,7.98537232 C15.9682183,3.5751423 12.3941988,0 7.98540351,0 Z"
              id="Path"
              fill="#00AB5E"
            />
                        <path
              d="M3.47215595,8.14403119 L6.70097466,11.3728499 C6.84179337,11.5136686 7.07012865,11.5136686 7.21094737,11.3728499 L12.5117505,6.07204678 C12.6525692,5.93122807 12.6525692,5.70289279 12.5117505,5.56207407 L11.5469162,4.59723977 C11.4060975,4.45642105 11.1777622,4.45642105 11.0369435,4.59723977 L7.1814425,8.45267836 C7.04062378,8.59349708 6.8122885,8.59349708 6.67146979,8.45267836 L4.94368811,6.72489669 C4.80564522,6.5868538 4.58279922,6.58373489 4.44095127,6.71784795 L3.47939181,7.62697856 C3.33180507,7.76654971 3.32853021,8.00040546 3.47215595,8.14403119 Z"
              id="Path"
              fill="#FFF5F5"
            />
                        <path
              d="M11.5469162,4.59720858 C11.4060975,4.45638986 11.1777622,4.45638986 11.0369435,4.59720858 L7.9745809,7.65957115 L7.9745809,10.6092164 L12.5117505,6.07204678 C12.6525692,5.93122807 12.6525692,5.70289279 12.5117505,5.56204288 L11.5469162,4.59720858 Z"
              id="Path"
              fill="#DFEBF1"
            />
                    </g>
                </g>
            </g>
        </g>
    </g>
</svg>
