<svg
  width="24px"
  height="16px"
  viewBox="0 0 24 16"
  version="1.1"
  xmlns="http://www.w3.org/2000/svg"
  xmlns:xlink="http://www.w3.org/1999/xlink"
>
    <g
    id="Page-1"
    stroke="none"
    stroke-width="1"
    fill="none"
    fill-rule="evenodd"
  >
        <g
      id="HOME"
      transform="translate(-1365.000000, -3273.000000)"
      fill="#FFFFFF"
      fill-rule="nonzero"
    >
            <g id="Group-22" transform="translate(144.000000, 3210.000000)">
                <g id="Group-65" transform="translate(1155.000000, 0.000000)">
                    <g
            id="discord-(1)"
            transform="translate(66.000000, 63.000000)"
          >
                        <path
              d="M5.16068874,12.7820397 C10.2123444,14.7534834 14.5113113,15.1374834 19.3829404,12.0688742 C19.3472318,12.1224371 18.3835762,13.5500927 15.8494305,14.2817483 C16.3847947,15.013457 17.1165033,15.8521854 17.1165033,15.8521854 C18.7405033,15.8521854 20.3287947,15.3881854 21.7028874,14.495894 C22.7736689,13.7820397 23.3803974,12.5506755 23.2554702,11.2658013 C23.0413245,9.07072848 22.5237616,6.92921854 21.7207417,4.87698013 C20.7035232,2.20010596 18.258649,0.34410596 15.4211391,0.076397351 C15.1712848,0.0585430464 14.9928477,0.0585430464 14.8857748,0.0585430464 L14.6002649,0.34405298 C17.8660662,1.27205298 19.4900662,2.71756291 19.5257219,2.77112583 C14.5109934,0.236980132 8.58617219,0.201324503 3.5357351,2.66405298 C3.5357351,2.66405298 5.14188079,1.07576159 8.69319205,0.236980132 L8.47904636,0.0228344371 C8.1042649,0.0228344371 7.74733775,0.0585430464 7.37260927,0.11205298 C4.74924503,0.558198675 2.55422517,2.36063576 1.60837086,4.84121854 C0.787443709,6.98272848 0.25207947,9.23131126 0.0557880795,11.5156026 C-0.0512847682,12.7291126 0.519788079,13.9248212 1.51915232,14.6208212 C2.8397351,15.4952583 4.41017219,15.9592583 5.99846358,15.9592583 C5.99846358,15.9592583 6.64090066,15.1204768 7.28339073,14.3709669 C4.87417219,13.6571126 3.89266225,12.229457 3.87480795,12.175894 L4.32821192,12.4074172 C4.59925828,12.5459073 4.87713907,12.6713642 5.16068874,12.7820397 L5.16068874,12.7820397 Z M7.96153642,11.2300927 C6.80153642,11.1943841 5.89139073,10.2128742 5.92709934,9.03501987 C5.96280795,7.92858278 6.85509934,7.03629139 7.96153642,7.00058278 C9.12153642,7.03629139 10.0316821,8.01780132 9.99597351,9.19565563 C9.9424106,10.3021457 9.06797351,11.1944371 7.96153642,11.2300927 L7.96153642,11.2300927 Z M15.242649,11.2300927 C14.082649,11.1943841 13.1725033,10.2128742 13.2082119,9.03501987 C13.2439205,7.92858278 14.1362119,7.03629139 15.242649,7.00058278 C16.402649,7.03629139 17.3127947,8.01780132 17.2770861,9.19565563 C17.2414305,10.3021457 16.3490861,11.1944371 15.242649,11.2300927 L15.242649,11.2300927 Z"
              id="Icon"
            />
                    </g>
                </g>
            </g>
        </g>
    </g>
</svg>
