<svg
  width="25px"
  height="21px"
  viewBox="0 0 25 21"
  version="1.1"
  xmlns="http://www.w3.org/2000/svg"
  xmlns:xlink="http://www.w3.org/1999/xlink"
>
    <g
    id="Page-1"
    stroke="none"
    stroke-width="1"
    fill="none"
    fill-rule="evenodd"
  >
        <g
      id="COLLECTION"
      transform="translate(-1542.000000, -720.000000)"
      fill="#14F195"
      fill-rule="nonzero"
    >
            <g id="Group-28" transform="translate(1478.000000, 707.000000)">
                <g id="Group-27" transform="translate(19.000000, 0.000000)">
                    <g
            id="grid-(1)"
            transform="translate(45.000000, 13.500000)"
          >
                        <path
              d="M24.2675781,0 L17.6430664,0 L17.6430664,5.70404235 L25,5.70404235 L25,0.721847931 C25,0.323387873 24.671875,0 24.2675781,0 Z M8.82177734,5.70404235 L16.1782227,5.70404235 L16.1782227,0 L8.82177734,0 L8.82177734,5.70404235 Z M0.732421875,0 C0.328125,0 0,0.323387873 0,0.721847931 L0,5.70404235 L7.35693359,5.70404235 L7.35693359,0 L0.732421875,0 Z M17.6430664,14.2959577 L17.6430664,20 L24.2675781,20 C24.671875,20 25,19.6766121 25,19.2781521 L25,14.2959577 L17.6430664,14.2959577 Z M8.82177734,20 L16.1782227,20 L16.1782227,14.2959577 L8.82177734,14.2959577 L8.82177734,20 Z M0,14.2959577 L0,19.2781521 C0,19.6766121 0.328125,20 0.732421875,20 L7.35693359,20 L7.35693359,14.2959577 L0,14.2959577 Z M17.6430664,7.14773821 L17.6430664,12.8522618 L25,12.8522618 L25,7.14773821 L17.6430664,7.14773821 Z M8.82177734,12.8522618 L16.1782227,12.8522618 L16.1782227,7.14773821 L8.82177734,7.14773821 L8.82177734,12.8522618 Z M0,7.14773821 L0,12.8522618 L7.35693359,12.8522618 L7.35693359,7.14773821 L0,7.14773821 Z"
              id="Shape"
            />
                    </g>
                </g>
            </g>
        </g>
    </g>
</svg>
