<svg
  width="20px"
  height="21px"
  viewBox="0 0 20 21"
  version="1.1"
  xmlns="http://www.w3.org/2000/svg"
  xmlns:xlink="http://www.w3.org/1999/xlink"
>
    <g
    id="Page-1"
    stroke="none"
    stroke-width="1"
    fill="none"
    fill-rule="evenodd"
  >
        <g
      id="COLLECTION"
      transform="translate(-1497.000000, -720.000000)"
      fill="#FFFFFF"
      fill-rule="nonzero"
    >
            <g id="Group-28" transform="translate(1478.000000, 707.000000)">
                <g id="Group-27" transform="translate(19.000000, 0.000000)">
                    <g id="grid" transform="translate(0.000000, 13.500000)">
                        <path
              d="M18.3333333,10.5555556 C19.2209338,10.5555556 19.9971707,11.2781464 20,12.2222222 L20,18.3333333 C20,19.2209338 19.2863922,20 18.3333333,20 L12.2222222,20 C11.3346217,20 10.5583848,19.2768748 10.5555556,18.3333333 L10.5555556,12.2222222 C10.5555556,11.3346217 11.2712312,10.5555556 12.2222222,10.5555556 L18.3333333,10.5555556 Z M7.77777778,10.5555556 C8.66537828,10.5555556 9.44161517,11.2781464 9.44444444,12.2222222 L9.44444444,18.3333333 C9.44444444,19.2209338 8.73083667,20 7.77777778,20 L1.66666667,20 C0.779066178,20 0.00282927222,19.2768748 0,18.3333333 L0,12.2222222 C0,11.3346217 0.715675667,10.5555556 1.66666667,10.5555556 L7.77777778,10.5555556 Z M18.3333333,0 C19.2209338,0 19.9971707,0.722590839 20,1.66666667 L20,7.77777778 C20,8.66537828 19.2863922,9.44444444 18.3333333,9.44444444 L12.2222222,9.44444444 C11.3346217,9.44444444 10.5583848,8.72131928 10.5555556,7.77777778 L10.5555556,1.66666667 C10.5555556,0.779066178 11.2712312,0 12.2222222,0 L18.3333333,0 Z M7.77777778,0 C8.66537828,0 9.44161517,0.722590839 9.44444444,1.66666667 L9.44444444,7.77777778 C9.44444444,8.66537828 8.73083667,9.44444444 7.77777778,9.44444444 L1.66666667,9.44444444 C0.779066178,9.44444444 0.00282927222,8.72131928 0,7.77777778 L0,1.66666667 C0,0.779066178 0.715675667,0 1.66666667,0 L7.77777778,0 Z"
              id="Shape"
            />
                    </g>
                </g>
            </g>
        </g>
    </g>
</svg>
