<svg
  width="16px"
  height="16px"
  viewBox="0 0 16 16"
  version="1.1"
  xmlns="http://www.w3.org/2000/svg"
  xmlns:xlink="http://www.w3.org/1999/xlink"
>
    <g
    id="Page-1"
    stroke="none"
    stroke-width="1"
    fill="none"
    fill-rule="evenodd"
  >
        <g
      id="HOME"
      transform="translate(-1424.000000, -3273.000000)"
      fill="#FFFFFF"
      fill-rule="nonzero"
    >
            <g id="Group-22" transform="translate(144.000000, 3210.000000)">
                <g id="Group-65" transform="translate(1155.000000, 0.000000)">
                    <g
            id="instagram-(1)"
            transform="translate(125.000000, 63.000000)"
          >
                        <path
              d="M11.9884878,0 L3.99629268,0 C1.79863415,0 0.000195121951,1.79843902 0.000195121951,3.99609756 L0.000195121951,11.9886829 C0.000195121951,14.1857561 1.79863415,15.9847805 3.99629268,15.9847805 L11.9884878,15.9847805 C14.1861463,15.9847805 15.9845854,14.1857561 15.9845854,11.9886829 L15.9845854,3.99609756 C15.9845854,1.79843902 14.1861463,0 11.9884878,0 Z M14.6524878,11.9886829 C14.6524878,13.4572488 13.4578732,14.6526829 11.9884878,14.6526829 L3.99629268,14.6526829 C2.52753171,14.6526829 1.33229268,13.4572488 1.33229268,11.9886829 L1.33229268,3.99609756 C1.33229268,2.52714146 2.52753171,1.33209756 3.99629268,1.33209756 L11.9884878,1.33209756 C13.4578732,1.33209756 14.6524878,2.52714146 14.6524878,3.99609756 L14.6524878,11.9886829 Z"
              id="Shape"
            />
                        <circle
              id="Oval"
              cx="12.3221463"
              cy="3.66302439"
              r="1"
            />
                        <path
              d="M7.99239024,3.99609756 C5.78493659,3.99609756 3.99629268,5.78493659 3.99629268,7.99219512 C3.99629268,10.1986341 5.78493659,11.9886829 7.99239024,11.9886829 C10.1992195,11.9886829 11.9884878,10.1986341 11.9884878,7.99219512 C11.9884878,5.78493659 10.1992195,3.99609756 7.99239024,3.99609756 Z M7.99239024,10.6565854 C6.52120976,10.6565854 5.32839024,9.46376585 5.32839024,7.99219512 C5.32839024,6.52062439 6.52120976,5.32819512 7.99239024,5.32819512 C9.46357073,5.32819512 10.6563902,6.52062439 10.6563902,7.99219512 C10.6563902,9.46376585 9.46357073,10.6565854 7.99239024,10.6565854 Z"
              id="Shape"
            />
                    </g>
                </g>
            </g>
        </g>
    </g>
</svg>
