<svg
  width="23px"
  height="16px"
  viewBox="0 0 23 16"
  version="1.1"
  xmlns="http://www.w3.org/2000/svg"
  xmlns:xlink="http://www.w3.org/1999/xlink"
>
    <g
    id="Page-1"
    stroke="none"
    stroke-width="1"
    fill="none"
    fill-rule="evenodd"
  >
        <g
      id="HOME"
      transform="translate(-1475.000000, -3273.000000)"
      fill="#FFFFFF"
      fill-rule="nonzero"
    >
            <g id="Group-22" transform="translate(144.000000, 3210.000000)">
                <g id="Group-65" transform="translate(1155.000000, 0.000000)">
                    <g id="email" transform="translate(176.000000, 63.000000)">
                        <path
              d="M20.7555556,0 L2,0 C0.899466667,0 0,0.895511111 0,2 L0,14 C0,15.1048889 0.900044444,16 2,16 L20.7555556,16 C21.8560889,16 22.7555556,15.1044889 22.7555556,14 L22.7555556,2 C22.7555556,0.895244444 21.8556444,0 20.7555556,0 Z M20.4484444,1.33333333 C19.8018222,1.98208889 12.2064444,9.60222222 11.8944,9.91528889 C11.6337778,10.1767111 11.1219111,10.1768889 10.8611556,9.91528889 L2.30711111,1.33333333 L20.4484444,1.33333333 Z M1.33333333,13.7548889 L1.33333333,2.24511111 L7.06955556,8 L1.33333333,13.7548889 Z M2.30711111,14.6666667 L8.01084444,8.94435556 L9.91684444,10.8565778 C10.6979111,11.6401778 12.0579556,11.6398667 12.8387556,10.8565778 L14.7447556,8.94435556 L20.4484444,14.6666667 L2.30711111,14.6666667 Z M21.4222222,13.7548889 L15.686,8 L21.4222222,2.24511111 L21.4222222,13.7548889 Z"
              id="Shape"
            />
                    </g>
                </g>
            </g>
        </g>
    </g>
</svg>
