<svg
  width="17px"
  height="16px"
  viewBox="0 0 17 16"
  version="1.1"
  xmlns="http://www.w3.org/2000/svg"
  xmlns:xlink="http://www.w3.org/1999/xlink"
>
    <g
    id="Page-1"
    stroke="none"
    stroke-width="1"
    fill="none"
    fill-rule="evenodd"
  >
        <g
      id="COLLECTION"
      transform="translate(-940.000000, -649.000000)"
      fill="#14F195"
      fill-rule="nonzero"
    >
            <g id="Group-20" transform="translate(940.000000, 647.000000)">
                <g id="line-chart" transform="translate(0.000000, 2.000000)">
                    <path
            d="M15.7494309,14.177561 L15.7494309,14.1705691 L3.61086179,14.1705691 C2.61421138,14.1705691 1.80614634,13.3653008 1.80195122,12.3686504 L1.80195122,0.921495935 C1.80195122,0.424227642 1.39827642,0.0205203252 0.90097561,0.0205203252 C0.403674797,0.0205203252 0,0.424195122 0,0.921495935 L0,12.3686504 C0,14.3626341 1.61684553,15.9795122 3.61086179,15.9795122 L15.7494634,15.9795122 C16.2467317,15.9795122 16.650439,15.5758374 16.650439,15.0785366 C16.650439,14.5812358 16.2467317,14.177561 15.7494309,14.177561 Z"
            id="Path"
          />
                    <path
            d="M14.6599024,3.82692683 C14.2603902,3.528 13.6946667,3.60900813 13.3957724,4.00852033 L11.3004878,7.01173984 L8.33918699,4.78377236 C7.94178862,4.48484553 7.37674797,4.56445528 7.07782114,4.96188618 C7.07710569,4.96328455 7.07642276,4.96396748 7.07502439,4.96536585 L4.49785366,8.66699187 C4.19684553,9.06299187 4.27437398,9.62871545 4.67037398,9.9297561 C4.8219187,10.0450081 5.00630894,10.1092358 5.19629268,10.112748 C5.19629268,10.112748 5.19629268,10.1336911 5.19629268,10.1336911 C5.4721626,10.1260163 5.72988618,9.99190244 5.89473171,9.77050407 L7.99001626,6.76728455 L10.9513171,8.99525203 C11.3487154,9.29417886 11.9137561,9.21456911 12.2126829,8.81713821 C12.2133659,8.81573984 12.2140813,8.81505691 12.2154797,8.81365854 L14.841561,5.09105691 C15.1404228,4.69157724 15.0594146,4.12585366 14.6599024,3.82692683 Z"
            id="Path"
          />
                </g>
            </g>
        </g>
    </g>
</svg>
