<svg
  width="20px"
  height="20px"
  viewBox="0 0 20 20"
  version="1.1"
  xmlns="http://www.w3.org/2000/svg"
  xmlns:xlink="http://www.w3.org/1999/xlink"
>
    <g
    id="Page-1"
    stroke="none"
    stroke-width="1"
    fill="none"
    fill-rule="evenodd"
  >
        <g
      id="COLLECTION"
      transform="translate(-1624.000000, -720.000000)"
      fill="#14F195"
      fill-rule="nonzero"
    >
            <g id="Group-30" transform="translate(1611.000000, 707.000000)">
                <g id="refresh" transform="translate(13.000000, 13.000000)">
                    <path
            d="M18.4472222,10.7053333 C17.8265556,10.6108889 17.2753333,11.0363333 17.1863333,11.6428889 C16.9627778,13.1663333 16.2596667,14.5563333 15.1528889,15.6631111 C12.336,18.48 7.756,18.4777778 4.94022222,15.6631111 C2.125,12.8473333 2.125,8.26566667 4.94022222,5.45044444 C5.99922222,4.392 7.33611111,3.70188889 8.83233333,3.45066667 C9.47577778,3.32855556 10.1675556,3.30744444 10.8853333,3.38877778 C11.8708889,3.50222222 12.7882222,3.82922222 13.6253333,4.30933333 L12.1787778,4.55633333 C11.5744444,4.66 11.1674444,5.234 11.2716667,5.83888889 C11.3638889,6.38033333 11.8337778,6.76277778 12.3654444,6.76277778 C12.4273333,6.76277778 12.4902222,6.75788889 12.5542222,6.747 L16.4322222,6.084 C16.7218889,6.03411111 16.9812222,5.87133333 17.1516667,5.63044444 C17.322,5.39011111 17.3893333,5.09166667 17.3393333,4.80088889 L16.6752222,0.923444444 C16.5732222,0.319111111 16.0067778,-0.0856666667 15.3926667,0.0157777778 C14.7883333,0.119444444 14.3813333,0.694 14.4855556,1.29888889 L14.6603333,2.31944444 C13.5848889,1.71611111 12.3985556,1.32577778 11.1381111,1.18066667 C10.1941111,1.07322222 9.27833333,1.10311111 8.44011111,1.26366667 C6.51033333,1.587 4.75688889,2.49144444 3.369,3.87922222 C-0.312666667,7.56088889 -0.312666667,13.5515556 3.369,17.2342222 C5.20977778,19.0755556 7.62844444,19.9957778 10.0465556,19.9957778 C12.4652222,19.9957778 14.8826667,19.0756667 16.7241111,17.2342222 C18.1705556,15.7877778 19.0906667,13.966 19.3846667,11.9662222 C19.4737778,11.3585556 19.0537778,10.7942222 18.4472222,10.7053333 L18.4472222,10.7053333 Z"
            id="Path"
          />
                </g>
            </g>
        </g>
    </g>
</svg>
