<svg
  width="26px"
  height="16px"
  viewBox="0 0 26 16"
  version="1.1"
  xmlns="http://www.w3.org/2000/svg"
  xmlns:xlink="http://www.w3.org/1999/xlink"
>
    <g
    id="Page-1"
    stroke="none"
    stroke-width="1"
    fill="none"
    fill-rule="evenodd"
  >
        <g
      id="COLLECTION"
      transform="translate(-767.000000, -649.000000)"
      fill="#14F195"
      fill-rule="nonzero"
    >
            <g id="Group-21" transform="translate(767.000000, 647.000000)">
                <g id="transaction" transform="translate(0.000000, 2.000000)">
                    <path
            d="M24.808,4.90628571 L20.2365714,0.334857143 C19.7881384,-0.0982539537 19.0753317,-0.0920598559 18.6344931,0.348778771 C18.1936544,0.789617398 18.1874603,1.50242413 18.6205714,1.95085714 L21.2410286,4.57142857 L5.71428571,4.57142857 C5.08310314,4.57142857 4.57142857,5.08310314 4.57142857,5.71428571 C4.57142857,6.34546829 5.08310314,6.85714286 5.71428571,6.85714286 L24,6.85714286 C24.4621667,6.85704417 24.8787818,6.57859714 25.055632,6.15160521 C25.2324822,5.72461328 25.1347519,5.23313629 24.808,4.90628571 Z"
            id="Path"
          />
                    <path
            d="M19.4285714,9.14285714 L1.14285714,9.14285714 C0.680690402,9.14295583 0.264075371,9.42140286 0.0872251679,9.84839479 C-0.0896250354,10.2753867 0.00810523934,10.7668637 0.334857143,11.0937143 L4.90628571,15.6651429 C5.35471873,16.098254 6.06752546,16.0920599 6.50836409,15.6512212 C6.94920271,15.2103826 6.95539681,14.4975759 6.52228571,14.0491429 L3.90182857,11.4285714 L19.4285714,11.4285714 C20.059754,11.4285714 20.5714286,10.9168969 20.5714286,10.2857143 C20.5714286,9.65453171 20.059754,9.14285714 19.4285714,9.14285714 Z"
            id="Path"
          />
                </g>
            </g>
        </g>
    </g>
</svg>
