<svg
  width="20px"
  height="16px"
  viewBox="0 0 20 16"
  version="1.1"
  xmlns="http://www.w3.org/2000/svg"
  xmlns:xlink="http://www.w3.org/1999/xlink"
>
    <g
    id="Page-1"
    stroke="none"
    stroke-width="1"
    fill="none"
    fill-rule="evenodd"
  >
        <g
      id="HOME"
      transform="translate(-1312.000000, -3273.000000)"
      fill="#FFFFFF"
      fill-rule="nonzero"
    >
            <g id="Group-22" transform="translate(144.000000, 3210.000000)">
                <g id="Group-65" transform="translate(1155.000000, 0.000000)">
                    <g id="twitter" transform="translate(13.000000, 63.000000)">
                        <path
              d="M19.189008,2.22902202 C18.4867916,2.53331578 17.761168,2.74398069 16.98873,2.83760954 C17.7845752,2.36946529 18.3931628,1.6204345 18.6740493,0.707553215 C17.9250185,1.15229025 17.1057661,1.45658401 16.2396992,1.64384171 C15.5374828,0.894810914 14.5309727,0.426666667 13.4308337,0.426666667 C11.3007774,0.426666667 9.59205091,2.15880038 9.59205091,4.26544949 C9.59205091,4.56974325 9.61545812,4.8506298 9.68567976,5.13151635 C6.50229888,4.99107307 3.6934334,3.44619706 1.7974492,1.12888304 C0.439830883,3.56323312 1.96129969,5.57625338 2.96780982,6.25506254 C2.3592223,6.25506254 1.75063477,6.06780484 1.2356761,5.78691829 C1.2356761,7.68290249 2.56988721,9.25118572 4.30202092,9.60229391 C3.92750552,9.71932997 3.08484588,9.78955161 2.56988721,9.67251554 C3.06143867,11.1939843 4.48927862,12.3175305 6.1511907,12.3409378 C4.8403868,13.3708551 2.92099539,14.1901075 0.463238095,13.9326282 C2.1719646,15.0327672 4.18498486,15.6647619 6.36185561,15.6647619 C13.4308337,15.6647619 17.2696166,9.81295882 17.2696166,4.75700095 C17.2696166,4.59315046 17.2696166,4.42929998 17.2462093,4.26544949 C18.0420546,3.68026918 18.6974565,3.00146002 19.189008,2.22902202 L19.189008,2.22902202 Z"
              id="_x30_4.Twitter"
            />
                    </g>
                </g>
            </g>
        </g>
    </g>
</svg>
