<svg
  width="17px"
  height="16px"
  viewBox="0 0 17 16"
  version="1.1"
  xmlns="http://www.w3.org/2000/svg"
  xmlns:xlink="http://www.w3.org/1999/xlink"
>
    <g
    id="Page-1"
    stroke="none"
    stroke-width="1"
    fill="none"
    fill-rule="evenodd"
  >
        <g
      id="COLLECTION"
      transform="translate(-1425.000000, -349.000000)"
      fill="#FFFFFF"
      fill-rule="nonzero"
    >
            <g id="Group-4" transform="translate(1415.000000, 338.000000)">
                <g id="web-(1)" transform="translate(10.500000, 11.000000)">
                    <path
            d="M8,0 C3.581722,0 0,3.581722 0,8 C0,12.418278 3.581722,16 8,16 C12.418278,16 16,12.418278 16,8 C15.9950035,3.58379329 12.4162067,0.00499654494 8,0 Z M8,14.9333333 C6.89866667,14.9333333 5.7456,13.5136 5.17333333,11.2 L10.8266667,11.2 C10.2544,13.5136 9.10133333,14.9333333 8,14.9333333 Z M4.9568,10.1333333 C4.74773423,8.71879425 4.74773423,7.28120575 4.9568,5.86666667 L11.0432,5.86666667 C11.1489771,6.57282987 11.2013921,7.28595987 11.200027,8 C11.2013921,8.71404013 11.1489771,9.42717013 11.0432,10.1333333 L4.9568,10.1333333 Z M1.06666667,8 C1.06705287,7.27549253 1.1815214,6.55556464 1.40586667,5.86666667 L3.88586667,5.86666667 C3.68248868,7.28161812 3.68248868,8.71838188 3.88586667,10.1333333 L1.40586667,10.1333333 C1.1815214,9.44443536 1.06705287,8.72450747 1.06666667,8 Z M8,1.06666667 C9.10133333,1.06666667 10.2544,2.4864 10.8266667,4.8 L5.17333333,4.8 C5.7456,2.4864 6.89866667,1.06666667 8,1.06666667 Z M12.1141333,5.86666667 L14.5941333,5.86666667 C15.0462752,7.25295353 15.0462752,8.74704647 14.5941333,10.1333333 L12.1141333,10.1333333 C12.2152699,9.42671413 12.2662419,8.7138201 12.2666667,8 C12.2662419,7.2861799 12.2152699,6.57328587 12.1141333,5.86666667 L12.1141333,5.86666667 Z M14.1445333,4.8 L11.9221333,4.8 C11.6847882,3.64001013 11.219431,2.53870718 10.5530667,1.56 C12.0987441,2.17642859 13.3727346,3.32574436 14.1445333,4.8 L14.1445333,4.8 Z M5.44693333,1.56 C4.78056896,2.53870718 4.31521181,3.64001013 4.07786667,4.8 L1.85546667,4.8 C2.62726538,3.32574436 3.9012559,2.17642859 5.44693333,1.56 Z M1.85546667,11.2 L4.07786667,11.2 C4.31521181,12.3599899 4.78056896,13.4612928 5.44693333,14.44 C3.9012559,13.8235714 2.62726538,12.6742556 1.85546667,11.2 L1.85546667,11.2 Z M10.5530667,14.44 C11.219431,13.4612928 11.6847882,12.3599899 11.9221333,11.2 L14.1445333,11.2 C13.3727346,12.6742556 12.0987441,13.8235714 10.5530667,14.44 L10.5530667,14.44 Z"
            id="Shape"
          />
                </g>
            </g>
        </g>
    </g>
</svg>
