<?xml version="1.0" encoding="UTF-8"?>
<svg width="15px" height="12px" viewBox="0 0 15 12" version="1.1" xmlns="http://www.w3.org/2000/svg" xmlns:xlink="http://www.w3.org/1999/xlink">
    <title>twitter</title>
    <g id="Page-1" stroke="none" stroke-width="1" fill="none" fill-rule="evenodd">
        <g id="HOME" transform="translate(-1521.000000, -820.000000)" fill="#1DA1F2" fill-rule="nonzero">
            <g id="Group-67" transform="translate(1465.000000, 816.000000)">
                <g id="twitter" transform="translate(56.000000, 4.000000)">
                    <path d="M14.5352113,1.41935484 C13.9901408,1.65898618 13.4269014,1.82488479 12.8273239,1.89861751 C13.4450704,1.52995392 13.9174648,0.940092166 14.135493,0.221198157 C13.5540845,0.571428571 12.918169,0.811059908 12.2459155,0.958525346 C11.7008451,0.368663594 10.9195775,0 10.0656338,0 C8.41225352,0 7.08591549,1.3640553 7.08591549,3.02304147 C7.08591549,3.26267281 7.10408451,3.48387097 7.15859155,3.70506912 C4.68760563,3.59447005 2.50732394,2.37788018 1.0356338,0.552995392 C-0.0181690141,2.47004608 1.1628169,4.05529954 1.94408451,4.58986175 C1.47169014,4.58986175 0.999295775,4.44239631 0.599577465,4.22119816 C0.599577465,5.71428571 1.63521127,6.94930876 2.97971831,7.22580645 C2.68901408,7.31797235 2.03492958,7.37327189 1.63521127,7.28110599 C2.01676056,8.47926267 3.12507042,9.3640553 4.41507042,9.38248848 C3.39760563,10.1935484 1.90774648,10.8387097 0,10.6359447 C1.32633803,11.5023041 2.88887324,12 4.57859155,12 C10.0656338,12 13.0453521,7.39170507 13.0453521,3.41013825 C13.0453521,3.28110599 13.0453521,3.15207373 13.0271831,3.02304147 C13.6449296,2.56221198 14.153662,2.02764977 14.5352113,1.41935484 L14.5352113,1.41935484 Z" id="_x30_4.Twitter"></path>
                </g>
            </g>
        </g>
    </g>
</svg>